<mxfile host="app.diagrams.net" modified="2020-11-30T05:04:30.309Z" agent="5.0 (Windows NT 10.0; Win64; x64) AppleWebKit/537.36 (KHTML, like Gecko) Chrome/86.0.4240.198 Safari/537.36 OPR/72.0.3815.400" etag="13Sc5Cjf9alUis7CE03M" version="13.10.4" type="github">
  <diagram name="Page-1" id="7a6c530e-6e37-e111-ec74-82921da8cc10">
    <mxGraphModel dx="1380" dy="753" grid="1" gridSize="10" guides="1" tooltips="1" connect="1" arrows="1" fold="1" page="1" pageScale="1.5" pageWidth="1169" pageHeight="826" background="#184380" math="0" shadow="0">
      <root>
        <mxCell id="0" style=";html=1;" />
        <mxCell id="1" style=";html=1;" parent="0" />
        <mxCell id="23046e2b9bb16c14-71" style="edgeStyle=orthogonalEdgeStyle;html=1;startArrow=none;startFill=0;startSize=10;endArrow=none;endFill=0;endSize=10;strokeWidth=3;fontSize=11;fontColor=#FFFFFF;strokeColor=#FFFFFF;dashed=1;rounded=0;" parent="1" source="24964f25f45c63f1-4" edge="1">
          <mxGeometry relative="1" as="geometry">
            <Array as="points">
              <mxPoint x="581" y="730" />
              <mxPoint x="798" y="730" />
            </Array>
            <mxPoint x="798" y="591" as="targetPoint" />
          </mxGeometry>
        </mxCell>
        <mxCell id="23046e2b9bb16c14-70" style="edgeStyle=orthogonalEdgeStyle;html=1;startArrow=none;startFill=0;startSize=10;endArrow=none;endFill=0;endSize=10;strokeWidth=3;fontSize=11;fontColor=#FFFFFF;strokeColor=#FFFFFF;dashed=1;rounded=0;" parent="1" target="23046e2b9bb16c14-68" edge="1">
          <mxGeometry relative="1" as="geometry">
            <mxPoint x="581" y="698" as="sourcePoint" />
            <Array as="points">
              <mxPoint x="581" y="730" />
              <mxPoint x="1361" y="730" />
            </Array>
          </mxGeometry>
        </mxCell>
        <mxCell id="23046e2b9bb16c14-72" style="edgeStyle=orthogonalEdgeStyle;html=1;startArrow=none;startFill=0;startSize=10;endArrow=none;endFill=0;endSize=10;strokeWidth=3;fontSize=11;fontColor=#FFFFFF;strokeColor=#FFFFFF;dashed=1;rounded=0;" parent="1" source="23046e2b9bb16c14-63" edge="1">
          <mxGeometry relative="1" as="geometry">
            <Array as="points">
              <mxPoint x="351" y="730" />
              <mxPoint x="581" y="730" />
            </Array>
            <mxPoint x="581" y="698" as="targetPoint" />
          </mxGeometry>
        </mxCell>
        <mxCell id="23046e2b9bb16c14-84" value="" style="rounded=0;whiteSpace=wrap;html=1;shadow=0;strokeWidth=2;fillColor=#F04D22;fontSize=12;fontColor=#FFFFFF;align=center;strokeColor=none;arcSize=6;verticalAlign=top;" parent="1" vertex="1">
          <mxGeometry x="323" y="819.5" width="300" height="102" as="geometry" />
        </mxCell>
        <mxCell id="23046e2b9bb16c14-85" value="" style="rounded=0;whiteSpace=wrap;html=1;shadow=0;strokeWidth=2;fillColor=#8BC63E;fontSize=12;fontColor=#FFFFFF;align=center;strokeColor=none;arcSize=6;verticalAlign=top;" parent="1" vertex="1">
          <mxGeometry x="626" y="820" width="400" height="102" as="geometry" />
        </mxCell>
        <mxCell id="23046e2b9bb16c14-86" value="" style="rounded=0;whiteSpace=wrap;html=1;shadow=0;strokeWidth=2;fillColor=#0072BC;fontSize=12;fontColor=#FFFFFF;align=center;strokeColor=none;arcSize=3;verticalAlign=top;" parent="1" vertex="1">
          <mxGeometry x="1026" y="820" width="390" height="102" as="geometry" />
        </mxCell>
        <mxCell id="23046e2b9bb16c14-87" value="A" style="text;html=1;strokeColor=none;fillColor=none;align=center;verticalAlign=middle;whiteSpace=wrap;rounded=1;shadow=0;fontSize=30;fontColor=#FFFFFF;fontStyle=1" parent="1" vertex="1">
          <mxGeometry x="326" y="853" width="40" height="35" as="geometry" />
        </mxCell>
        <mxCell id="23046e2b9bb16c14-88" value="B" style="text;html=1;strokeColor=none;fillColor=none;align=center;verticalAlign=middle;whiteSpace=wrap;rounded=1;shadow=0;fontSize=30;fontColor=#FFFFFF;fontStyle=1" parent="1" vertex="1">
          <mxGeometry x="626" y="853" width="40" height="35" as="geometry" />
        </mxCell>
        <mxCell id="23046e2b9bb16c14-89" value="C" style="text;html=1;strokeColor=none;fillColor=none;align=center;verticalAlign=middle;whiteSpace=wrap;rounded=1;shadow=0;fontSize=30;fontColor=#FFFFFF;fontStyle=1" parent="1" vertex="1">
          <mxGeometry x="1026" y="853" width="40" height="35" as="geometry" />
        </mxCell>
        <mxCell id="23046e2b9bb16c14-90" value="Computer" style="verticalLabelPosition=top;html=1;verticalAlign=bottom;strokeColor=none;fillColor=#FFFFFF;shape=mxgraph.azure.computer;rounded=0;shadow=0;fontSize=10;fontColor=#FFFFFF;align=center;labelPosition=center;" parent="1" vertex="1">
          <mxGeometry x="393" y="860" width="50" height="45" as="geometry" />
        </mxCell>
        <mxCell id="23046e2b9bb16c14-91" value="VHD" style="shadow=0;html=1;strokeColor=none;fillColor=#FFFFFF;labelPosition=center;verticalLabelPosition=top;verticalAlign=bottom;shape=mxgraph.azure.vhd;rounded=0;fontSize=10;fontColor=#FFFFFF;align=center;" parent="1" vertex="1">
          <mxGeometry x="483" y="857" width="40" height="50" as="geometry" />
        </mxCell>
        <mxCell id="23046e2b9bb16c14-92" value="+" style="text;html=1;strokeColor=none;fillColor=none;align=center;verticalAlign=middle;whiteSpace=wrap;rounded=1;shadow=0;fontSize=30;fontColor=#FFFFFF;fontStyle=1" parent="1" vertex="1">
          <mxGeometry x="443" y="865" width="40" height="35" as="geometry" />
        </mxCell>
        <mxCell id="23046e2b9bb16c14-93" value="+" style="text;html=1;strokeColor=none;fillColor=none;align=center;verticalAlign=middle;whiteSpace=wrap;rounded=1;shadow=0;fontSize=30;fontColor=#FFFFFF;fontStyle=1" parent="1" vertex="1">
          <mxGeometry x="523" y="865" width="40" height="35" as="geometry" />
        </mxCell>
        <mxCell id="23046e2b9bb16c14-94" value="Server&lt;div&gt;Directory&lt;/div&gt;" style="shadow=0;html=1;strokeColor=none;shape=mxgraph.mscae.enterprise.server_directory;fillColor=#FFFFFF;rounded=0;fontSize=10;fontColor=#FFFFFF;align=center;verticalAlign=bottom;labelPosition=center;verticalLabelPosition=top;" parent="1" vertex="1">
          <mxGeometry x="563" y="858" width="36" height="50" as="geometry" />
        </mxCell>
        <mxCell id="23046e2b9bb16c14-95" value="VM Feature" style="shadow=0;html=1;strokeColor=none;fillColor=#FFFFFF;labelPosition=center;verticalLabelPosition=top;verticalAlign=bottom;shape=mxgraph.azure.virtual_machine_feature;rounded=0;fontSize=10;fontColor=#FFFFFF;align=center;" parent="1" vertex="1">
          <mxGeometry x="684" y="861" width="50" height="45" as="geometry" />
        </mxCell>
        <mxCell id="23046e2b9bb16c14-96" value="+" style="text;html=1;strokeColor=none;fillColor=none;align=center;verticalAlign=middle;whiteSpace=wrap;rounded=1;shadow=0;fontSize=30;fontColor=#FFFFFF;fontStyle=1" parent="1" vertex="1">
          <mxGeometry x="734" y="866" width="40" height="35" as="geometry" />
        </mxCell>
        <mxCell id="23046e2b9bb16c14-97" value="VHD" style="shadow=0;html=1;strokeColor=none;fillColor=#FFFFFF;labelPosition=center;verticalLabelPosition=top;verticalAlign=bottom;shape=mxgraph.azure.vhd;rounded=0;fontSize=10;fontColor=#FFFFFF;align=center;" parent="1" vertex="1">
          <mxGeometry x="774" y="858" width="40" height="50" as="geometry" />
        </mxCell>
        <mxCell id="23046e2b9bb16c14-98" value="3rd Party&lt;div&gt;Integration&lt;/div&gt;" style="shadow=0;html=1;strokeColor=none;fillColor=#FFFFFF;labelPosition=center;verticalLabelPosition=top;verticalAlign=bottom;shape=mxgraph.office.communications.3rd_party_integration;rounded=0;fontSize=10;fontColor=#FFFFFF;align=center;" parent="1" vertex="1">
          <mxGeometry x="854" y="856" width="54" height="55" as="geometry" />
        </mxCell>
        <mxCell id="23046e2b9bb16c14-99" value="+" style="text;html=1;strokeColor=none;fillColor=none;align=center;verticalAlign=middle;whiteSpace=wrap;rounded=1;shadow=0;fontSize=30;fontColor=#FFFFFF;fontStyle=1" parent="1" vertex="1">
          <mxGeometry x="814" y="866" width="40" height="35" as="geometry" />
        </mxCell>
        <mxCell id="23046e2b9bb16c14-100" value="+" style="text;html=1;strokeColor=none;fillColor=none;align=center;verticalAlign=middle;whiteSpace=wrap;rounded=1;shadow=0;fontSize=30;fontColor=#FFFFFF;fontStyle=1" parent="1" vertex="1">
          <mxGeometry x="908" y="866" width="40" height="35" as="geometry" />
        </mxCell>
        <mxCell id="23046e2b9bb16c14-101" value="Data Migration&lt;div&gt;Wizard&lt;/div&gt;" style="shadow=0;html=1;strokeColor=none;shape=mxgraph.mscae.intune.data_migration_wizard;fillColor=#FFFFFF;rounded=0;fontSize=10;fontColor=#FFFFFF;align=center;verticalAlign=bottom;labelPosition=center;verticalLabelPosition=top;" parent="1" vertex="1">
          <mxGeometry x="948" y="859" width="50" height="48" as="geometry" />
        </mxCell>
        <mxCell id="23046e2b9bb16c14-102" value="VM Feature" style="shadow=0;html=1;strokeColor=none;fillColor=#FFFFFF;labelPosition=center;verticalLabelPosition=top;verticalAlign=bottom;shape=mxgraph.azure.virtual_machine_feature;rounded=0;fontSize=10;fontColor=#FFFFFF;align=center;" parent="1" vertex="1">
          <mxGeometry x="1086" y="861" width="50" height="45" as="geometry" />
        </mxCell>
        <mxCell id="23046e2b9bb16c14-103" value="" style="line;strokeWidth=2;direction=south;html=1;rounded=0;shadow=0;fillColor=none;fontSize=30;fontColor=#FFFFFF;align=center;strokeColor=#FFFFFF;" parent="1" vertex="1">
          <mxGeometry x="366" y="820" width="10" height="102" as="geometry" />
        </mxCell>
        <mxCell id="23046e2b9bb16c14-104" value="" style="line;strokeWidth=2;direction=south;html=1;rounded=0;shadow=0;fillColor=none;fontSize=30;fontColor=#FFFFFF;align=center;strokeColor=#FFFFFF;" parent="1" vertex="1">
          <mxGeometry x="666" y="820" width="10" height="102" as="geometry" />
        </mxCell>
        <mxCell id="23046e2b9bb16c14-105" value="" style="line;strokeWidth=2;direction=south;html=1;rounded=0;shadow=0;fillColor=none;fontSize=30;fontColor=#FFFFFF;align=center;strokeColor=#FFFFFF;" parent="1" vertex="1">
          <mxGeometry x="1066" y="820" width="10" height="102" as="geometry" />
        </mxCell>
        <mxCell id="23046e2b9bb16c14-106" value="+" style="text;html=1;strokeColor=none;fillColor=none;align=center;verticalAlign=middle;whiteSpace=wrap;rounded=1;shadow=0;fontSize=30;fontColor=#FFFFFF;fontStyle=1" parent="1" vertex="1">
          <mxGeometry x="1136" y="866" width="40" height="35" as="geometry" />
        </mxCell>
        <mxCell id="23046e2b9bb16c14-107" value="Azure&lt;div&gt;Website&lt;/div&gt;" style="verticalLabelPosition=top;html=1;verticalAlign=bottom;strokeColor=none;fillColor=#FFFFFF;shape=mxgraph.azure.azure_website;rounded=0;shadow=0;fontSize=10;fontColor=#FFFFFF;align=center;labelPosition=center;" parent="1" vertex="1">
          <mxGeometry x="1176" y="858" width="50" height="50" as="geometry" />
        </mxCell>
        <mxCell id="23046e2b9bb16c14-108" value="+" style="text;html=1;strokeColor=none;fillColor=none;align=center;verticalAlign=middle;whiteSpace=wrap;rounded=1;shadow=0;fontSize=30;fontColor=#FFFFFF;fontStyle=1" parent="1" vertex="1">
          <mxGeometry x="1226" y="866" width="40" height="35" as="geometry" />
        </mxCell>
        <mxCell id="23046e2b9bb16c14-109" value="MySQL&lt;div&gt;Database&lt;/div&gt;" style="verticalLabelPosition=top;html=1;verticalAlign=bottom;strokeColor=none;fillColor=#FFFFFF;shape=mxgraph.azure.mysql_database;rounded=0;shadow=0;fontSize=10;fontColor=#FFFFFF;align=center;labelPosition=center;" parent="1" vertex="1">
          <mxGeometry x="1266" y="859" width="37.5" height="50" as="geometry" />
        </mxCell>
        <mxCell id="23046e2b9bb16c14-110" value="+" style="text;html=1;strokeColor=none;fillColor=none;align=center;verticalAlign=middle;whiteSpace=wrap;rounded=1;shadow=0;fontSize=30;fontColor=#FFFFFF;fontStyle=1" parent="1" vertex="1">
          <mxGeometry x="1304" y="866" width="40" height="35" as="geometry" />
        </mxCell>
        <mxCell id="23046e2b9bb16c14-111" value="Azure&lt;div&gt;Storage&lt;/div&gt;" style="shadow=0;html=1;strokeColor=none;labelPosition=center;verticalLabelPosition=top;verticalAlign=bottom;shape=mxgraph.mscae.cloud.azure_storage;fillColor=#FFFFFF;rounded=0;fontSize=10;fontColor=#FFFFFF;align=center;" parent="1" vertex="1">
          <mxGeometry x="1344" y="862" width="50" height="43" as="geometry" />
        </mxCell>
        <mxCell id="23046e2b9bb16c14-115" value="&lt;h1&gt;Heading&lt;/h1&gt;&lt;p&gt;Lorem ipsum dolor sit amet, consectetur adipisicing elit, sed do eiusmod tempor incididunt ut labore et dolore magna aliqua.&lt;/p&gt;" style="text;html=1;strokeColor=none;fillColor=none;spacing=5;spacingTop=-20;whiteSpace=wrap;overflow=hidden;rounded=0;shadow=0;fontSize=10;fontColor=#FFFFFF;align=left;" parent="1" vertex="1">
          <mxGeometry x="323" y="952" width="1041" height="70" as="geometry" />
        </mxCell>
        <mxCell id="0RZHIqCVHEWBpxUJ2ab8-1" value="" style="rounded=0;whiteSpace=wrap;html=1;shadow=1;strokeWidth=2;fillColor=#dae8fc;fontSize=12;align=center;strokeColor=#6c8ebf;arcSize=6;verticalAlign=top;" vertex="1" parent="1">
          <mxGeometry x="280" y="180" width="540" height="430" as="geometry" />
        </mxCell>
        <mxCell id="0RZHIqCVHEWBpxUJ2ab8-2" value="&lt;span style=&quot;font-size: 30px&quot;&gt;Physical server&lt;/span&gt;" style="text;html=1;resizable=0;autosize=1;align=center;verticalAlign=middle;points=[];fillColor=none;strokeColor=none;rounded=0;rotation=90;" vertex="1" parent="1">
          <mxGeometry x="190" y="390" width="220" height="30" as="geometry" />
        </mxCell>
        <mxCell id="0RZHIqCVHEWBpxUJ2ab8-5" value="&lt;font&gt;&lt;font style=&quot;font-size: 30px&quot;&gt;Hardware&lt;br&gt;Server&lt;/font&gt;&lt;br&gt;&lt;/font&gt;" style="whiteSpace=wrap;html=1;shadow=1;fontColor=#ffffff;strokeColor=#001DBC;fillColor=#0050ef;rounded=1;rotation=0;" vertex="1" parent="1">
          <mxGeometry x="326.5" y="190" width="143.5" height="410" as="geometry" />
        </mxCell>
        <mxCell id="0RZHIqCVHEWBpxUJ2ab8-6" value="&lt;font style=&quot;font-size: 30px&quot;&gt;Hypervisor&lt;/font&gt;" style="whiteSpace=wrap;html=1;rounded=1;shadow=1;fillColor=#fad9d5;strokeColor=#ae4132;rotation=90;" vertex="1" parent="1">
          <mxGeometry x="320" y="358.25" width="407.5" height="73.5" as="geometry" />
        </mxCell>
        <mxCell id="0RZHIqCVHEWBpxUJ2ab8-10" value="&lt;font style=&quot;font-size: 25px&quot;&gt;VM&lt;/font&gt;" style="whiteSpace=wrap;html=1;rounded=1;shadow=1;strokeColor=#36393d;fillColor=#91FF7A;align=left;arcSize=14;" vertex="1" parent="1">
          <mxGeometry x="570" y="190" width="180" height="130" as="geometry" />
        </mxCell>
        <mxCell id="0RZHIqCVHEWBpxUJ2ab8-12" value="&lt;font style=&quot;font-size: 25px&quot;&gt;VM&lt;/font&gt;" style="whiteSpace=wrap;html=1;rounded=1;shadow=1;strokeColor=#36393d;fillColor=#91FF7A;align=left;" vertex="1" parent="1">
          <mxGeometry x="570" y="332.5" width="180" height="127.5" as="geometry" />
        </mxCell>
        <mxCell id="0RZHIqCVHEWBpxUJ2ab8-15" value="&lt;font style=&quot;font-size: 25px&quot;&gt;VM&lt;/font&gt;" style="whiteSpace=wrap;html=1;rounded=1;shadow=1;strokeColor=#36393d;fillColor=#91FF7A;align=left;" vertex="1" parent="1">
          <mxGeometry x="570" y="470" width="180" height="130" as="geometry" />
        </mxCell>
        <mxCell id="0RZHIqCVHEWBpxUJ2ab8-16" value="&lt;font style=&quot;font-size: 18px&quot; color=&quot;#000000&quot;&gt;App1&lt;/font&gt;" style="whiteSpace=wrap;html=1;rounded=1;shadow=1;strokeColor=#A50040;fontColor=#ffffff;fillColor=#00D900;" vertex="1" parent="1">
          <mxGeometry x="612" y="200" width="54" height="50" as="geometry" />
        </mxCell>
        <mxCell id="0RZHIqCVHEWBpxUJ2ab8-17" value="&lt;font style=&quot;font-size: 18px&quot;&gt;&lt;font color=&quot;#000000&quot;&gt;File1&lt;/font&gt;&lt;br&gt;&lt;/font&gt;" style="whiteSpace=wrap;html=1;rounded=1;shadow=1;strokeColor=#A50040;fontColor=#ffffff;fillColor=#D4D950;" vertex="1" parent="1">
          <mxGeometry x="612" y="260" width="54" height="50" as="geometry" />
        </mxCell>
        <mxCell id="0RZHIqCVHEWBpxUJ2ab8-18" value="&lt;font&gt;&lt;font style=&quot;font-size: 16px&quot; color=&quot;#000000&quot;&gt;Service1&lt;/font&gt;&lt;br&gt;&lt;/font&gt;" style="whiteSpace=wrap;html=1;rounded=1;shadow=1;strokeColor=#C73500;fontColor=#ffffff;fillColor=#fa6800;" vertex="1" parent="1">
          <mxGeometry x="673.5" y="230" width="66.5" height="60" as="geometry" />
        </mxCell>
        <mxCell id="0RZHIqCVHEWBpxUJ2ab8-19" value="&lt;font color=&quot;#000000&quot;&gt;&lt;span style=&quot;font-size: 18px&quot;&gt;App2&lt;/span&gt;&lt;/font&gt;" style="whiteSpace=wrap;html=1;rounded=1;shadow=1;strokeColor=#A50040;fontColor=#ffffff;fillColor=#00D900;" vertex="1" parent="1">
          <mxGeometry x="612" y="340" width="54" height="50" as="geometry" />
        </mxCell>
        <mxCell id="0RZHIqCVHEWBpxUJ2ab8-20" value="&lt;font style=&quot;font-size: 18px&quot;&gt;&lt;font color=&quot;#000000&quot;&gt;File2&lt;/font&gt;&lt;br&gt;&lt;/font&gt;" style="whiteSpace=wrap;html=1;rounded=1;shadow=1;strokeColor=#A50040;fontColor=#ffffff;fillColor=#D4D950;" vertex="1" parent="1">
          <mxGeometry x="612" y="400" width="54" height="50" as="geometry" />
        </mxCell>
        <mxCell id="0RZHIqCVHEWBpxUJ2ab8-21" value="&lt;font&gt;&lt;font color=&quot;#000000&quot;&gt;&lt;span style=&quot;font-size: 16px&quot;&gt;Service2&lt;/span&gt;&lt;/font&gt;&lt;br&gt;&lt;/font&gt;" style="whiteSpace=wrap;html=1;rounded=1;shadow=1;strokeColor=#C73500;fontColor=#ffffff;fillColor=#fa6800;" vertex="1" parent="1">
          <mxGeometry x="673.5" y="370" width="66.5" height="60" as="geometry" />
        </mxCell>
        <mxCell id="0RZHIqCVHEWBpxUJ2ab8-22" value="&lt;font color=&quot;#000000&quot;&gt;&lt;span style=&quot;font-size: 18px&quot;&gt;App3&lt;/span&gt;&lt;/font&gt;" style="whiteSpace=wrap;html=1;rounded=1;shadow=1;strokeColor=#A50040;fontColor=#ffffff;fillColor=#00D900;" vertex="1" parent="1">
          <mxGeometry x="612" y="480" width="54" height="50" as="geometry" />
        </mxCell>
        <mxCell id="0RZHIqCVHEWBpxUJ2ab8-23" value="&lt;font style=&quot;font-size: 18px&quot;&gt;&lt;font color=&quot;#000000&quot;&gt;File3&lt;/font&gt;&lt;br&gt;&lt;/font&gt;" style="whiteSpace=wrap;html=1;rounded=1;shadow=1;strokeColor=#A50040;fontColor=#ffffff;fillColor=#D4D950;" vertex="1" parent="1">
          <mxGeometry x="612" y="540" width="54" height="50" as="geometry" />
        </mxCell>
        <mxCell id="0RZHIqCVHEWBpxUJ2ab8-24" value="&lt;font&gt;&lt;font color=&quot;#000000&quot;&gt;&lt;span style=&quot;font-size: 16px&quot;&gt;Service3&lt;/span&gt;&lt;/font&gt;&lt;br&gt;&lt;/font&gt;" style="whiteSpace=wrap;html=1;rounded=1;shadow=1;strokeColor=#C73500;fontColor=#ffffff;fillColor=#fa6800;" vertex="1" parent="1">
          <mxGeometry x="673.5" y="510" width="66.5" height="60" as="geometry" />
        </mxCell>
      </root>
    </mxGraphModel>
  </diagram>
</mxfile>
